ply
format ascii 1.0
element vertex 96
property float x
property float y
property float z
property uchar red
property uchar green
property uchar blue
element face 144
property list uchar int vertex_index
end_header
1.050023 3.865476 1.074582 255 0 0
1.050755 3.864457 1.054621 255 0 0
1.058455 3.860131 1.075164 255 0 0
1.059186 3.859112 1.055203 255 0 0
1.082208 3.916094 1.073177 255 0 0
1.082939 3.915075 1.053217 255 0 0
1.090639 3.910749 1.073759 255 0 0
1.091371 3.909730 1.053799 255 0 0
1.106999 3.829358 1.078515 255 0 0
1.107730 3.828339 1.058554 255 0 0
1.115430 3.824013 1.079097 255 0 0
1.116162 3.822994 1.059136 255 0 0
1.139183 3.879976 1.077110 255 0 0
1.139915 3.878957 1.057150 255 0 0
1.147615 3.874631 1.077692 255 0 0
1.148347 3.873612 1.057732 255 0 0
1.055387 3.873913 1.074348 205 0 50
1.056119 3.872893 1.054387 205 0 50
1.120794 3.832450 1.078863 205 0 50
1.121526 3.831430 1.058902 205 0 50
1.066115 3.890785 1.073880 205 0 50
1.066847 3.889766 1.053919 205 0 50
1.131523 3.849322 1.078395 205 0 50
1.132254 3.848303 1.058434 205 0 50
1.050951 3.799592 1.070966 255 50 50
1.051170 3.799286 1.064978 255 50 50
1.056010 3.796385 1.071315 255 50 50
1.056229 3.796079 1.065327 255 50 50
1.086740 3.859817 1.071207 255 50 50
1.087106 3.859307 1.061227 255 50 50
1.095172 3.854472 1.071789 255 50 50
1.095537 3.853962 1.061809 255 50 50
1.114927 3.974623 1.200299 134 0 120
1.099583 3.968817 1.188860 134 0 120
1.115549 3.965411 1.204140 134 0 120
1.100205 3.959605 1.192701 134 0 120
1.153230 3.959075 1.156811 134 0 120
1.137886 3.953269 1.145372 134 0 120
1.153852 3.949864 1.160653 134 0 120
1.138508 3.944057 1.149214 134 0 120
1.117823 3.931721 1.218189 134 0 120
1.102479 3.925915 1.206750 134 0 120
1.118445 3.922510 1.222030 134 0 120
1.103101 3.916703 1.210591 134 0 120
1.156126 3.916174 1.174701 134 0 120
1.140782 3.910368 1.163262 134 0 120
1.156748 3.906962 1.178543 134 0 120
1.141404 3.901156 1.167104 134 0 120
1.121310 3.972032 1.193051 84 0 170
1.105966 3.966226 1.181612 84 0 170
1.124829 3.919918 1.214782 84 0 170
1.109485 3.914112 1.203343 84 0 170
1.134078 3.966849 1.178555 84 0 170
1.118734 3.961043 1.167116 84 0 170
1.137597 3.914736 1.200286 84 0 170
1.122253 3.908930 1.188847 84 0 170
1.076018 3.963550 1.245872 255 50 50
1.071415 3.961808 1.242440 255 50 50
1.076391 3.958023 1.248176 255 50 50
1.071788 3.956281 1.244745 255 50 50
1.122115 3.947834 1.195512 255 50 50
1.114443 3.944931 1.189793 255 50 50
1.122737 3.938622 1.199353 255 50 50
1.115065 3.935719 1.193634 255 50 50
1.205107 3.877962 1.145858 0 0 255
1.206922 3.885906 1.164123 0 0 255
1.195789 3.875065 1.148044 0 0 255
1.197604 3.883009 1.166309 0 0 255
1.184023 3.930212 1.125231 0 0 255
1.185839 3.938155 1.143496 0 0 255
1.174705 3.927315 1.127417 0 0 255
1.176521 3.935258 1.145682 0 0 255
1.143558 3.858827 1.160297 0 0 255
1.145374 3.866770 1.178562 0 0 255
1.134240 3.855930 1.162483 0 0 255
1.136055 3.863873 1.180748 0 0 255
1.122475 3.911076 1.139670 0 0 255
1.124290 3.919019 1.157935 0 0 255
1.113157 3.908179 1.141856 0 0 255
1.114972 3.916122 1.160121 0 0 255
1.201593 3.886671 1.142420 0 0 255
1.203408 3.894614 1.160685 0 0 255
1.130726 3.864638 1.159045 0 0 255
1.132542 3.872581 1.177310 0 0 255
1.194565 3.904087 1.135544 0 0 255
1.196381 3.912030 1.153809 0 0 255
1.123698 3.882054 1.152170 0 0 255
1.125514 3.889998 1.170434 0 0 255
1.192431 3.822700 1.178817 255 50 50
1.192976 3.825083 1.184296 255 50 50
1.186840 3.820962 1.180128 255 50 50
1.187385 3.823345 1.185608 255 50 50
1.169516 3.883443 1.152487 255 50 50
1.170423 3.887414 1.161620 255 50 50
1.160198 3.880546 1.154673 255 50 50
1.161105 3.884517 1.163806 255 50 50
3 0 1 3
3 0 3 2
3 4 6 7
3 4 7 5
3 0 2 6
3 0 6 4
3 1 5 7
3 1 7 3
3 2 3 7
3 2 7 6
3 0 4 5
3 0 5 1
3 8 9 11
3 8 11 10
3 12 14 15
3 12 15 13
3 8 10 14
3 8 14 12
3 9 13 15
3 9 15 11
3 10 11 15
3 10 15 14
3 8 12 13
3 8 13 9
3 16 17 19
3 16 19 18
3 20 22 23
3 20 23 21
3 16 18 22
3 16 22 20
3 17 21 23
3 17 23 19
3 18 19 23
3 18 23 22
3 16 20 21
3 16 21 17
3 24 25 27
3 24 27 26
3 28 30 31
3 28 31 29
3 24 26 30
3 24 30 28
3 25 29 31
3 25 31 27
3 26 27 31
3 26 31 30
3 24 28 29
3 24 29 25
3 32 33 35
3 32 35 34
3 36 38 39
3 36 39 37
3 32 34 38
3 32 38 36
3 33 37 39
3 33 39 35
3 34 35 39
3 34 39 38
3 32 36 37
3 32 37 33
3 40 41 43
3 40 43 42
3 44 46 47
3 44 47 45
3 40 42 46
3 40 46 44
3 41 45 47
3 41 47 43
3 42 43 47
3 42 47 46
3 40 44 45
3 40 45 41
3 48 49 51
3 48 51 50
3 52 54 55
3 52 55 53
3 48 50 54
3 48 54 52
3 49 53 55
3 49 55 51
3 50 51 55
3 50 55 54
3 48 52 53
3 48 53 49
3 56 57 59
3 56 59 58
3 60 62 63
3 60 63 61
3 56 58 62
3 56 62 60
3 57 61 63
3 57 63 59
3 58 59 63
3 58 63 62
3 56 60 61
3 56 61 57
3 64 65 67
3 64 67 66
3 68 70 71
3 68 71 69
3 64 66 70
3 64 70 68
3 65 69 71
3 65 71 67
3 66 67 71
3 66 71 70
3 64 68 69
3 64 69 65
3 72 73 75
3 72 75 74
3 76 78 79
3 76 79 77
3 72 74 78
3 72 78 76
3 73 77 79
3 73 79 75
3 74 75 79
3 74 79 78
3 72 76 77
3 72 77 73
3 80 81 83
3 80 83 82
3 84 86 87
3 84 87 85
3 80 82 86
3 80 86 84
3 81 85 87
3 81 87 83
3 82 83 87
3 82 87 86
3 80 84 85
3 80 85 81
3 88 89 91
3 88 91 90
3 92 94 95
3 92 95 93
3 88 90 94
3 88 94 92
3 89 93 95
3 89 95 91
3 90 91 95
3 90 95 94
3 88 92 93
3 88 93 89
